<?xml version="1.0" encoding="UTF-8" standalone="no"?>
<!-- Created with Inkscape (http://www.inkscape.org/) -->

<svg
   width="776.28583"
   height="322.11719"
   viewBox="0 0 205.39228 85.226837"
   version="1.1"
   id="svg5"
   inkscape:version="1.2.2 (1:1.2.2+202305151914+b0a8486541)"
   sodipodi:docname="alexscott-net02.svg"
   xmlns:inkscape="http://www.inkscape.org/namespaces/inkscape"
   xmlns:sodipodi="http://sodipodi.sourceforge.net/DTD/sodipodi-0.dtd"
   xmlns="http://www.w3.org/2000/svg"
   xmlns:svg="http://www.w3.org/2000/svg">
  <sodipodi:namedview
     id="namedview7"
     pagecolor="#e6e6e6"
     bordercolor="#666666"
     borderopacity="1.0"
     inkscape:showpageshadow="2"
     inkscape:pageopacity="0"
     inkscape:pagecheckerboard="0"
     inkscape:deskcolor="#d1d1d1"
     inkscape:document-units="px"
     showgrid="false"
     inkscape:zoom="1.1036342"
     inkscape:cx="737.56325"
     inkscape:cy="255.9725"
     inkscape:window-width="1920"
     inkscape:window-height="1016"
     inkscape:window-x="0"
     inkscape:window-y="27"
     inkscape:window-maximized="1"
     inkscape:current-layer="g3998" />
  <defs
     id="defs2" />
  <g
     inkscape:groupmode="layer"
     id="layer4"
     inkscape:label="bg"
     style="display:none"
     transform="translate(-54.440152,-4.660768)">
    <rect
       style="display:none;fill:#2b0000;stroke:#323232;stroke-width:0;stroke-linecap:round;stroke-linejoin:round;stroke-dasharray:none;paint-order:stroke fill markers"
       id="rect3325"
       width="321.15692"
       height="235.22571"
       x="-11.429138"
       y="-14.112585" />
  </g>
  <g
     inkscape:label="Layer 1"
     inkscape:groupmode="layer"
     id="layer1"
     transform="translate(-54.440152,-4.660768)">
    <path
       style="fill:#ffffff;stroke:#000000;stroke-width:0.264583px;stroke-linecap:butt;stroke-linejoin:miter;stroke-opacity:1"
       d="m 85.766006,40.162077 c 0,0 -23.887189,-2.705357 -20.106809,5.599671 3.780377,8.305027 2.327349,6.255811 3.780377,8.455376 1.453031,2.199566 -5.900459,-0.93373 5.708841,3.093554 11.609302,4.027281 13.902507,-0.75972 11.442742,8.42061 -2.459768,9.180327 -1.752984,14.048172 -7.480427,14.376572 -5.727443,0.32839 -12.522338,-0.37627 -14.81941,-2.539074 -2.297073,-2.162805 2.983888,-7.59161 2.983888,-7.59161 0,0 8.133345,5.402141 9.642475,2.135767 1.509131,-3.266374 0.70666,-9.306568 0.70666,-9.306568 L 65.596205,61.31771 57.619242,45.785722 64.379474,33.297095 88.358685,36.091359 Z"
       id="path383" />
    <path
       style="fill:#ffffff;stroke:#000000;stroke-width:0.264583px;stroke-linecap:butt;stroke-linejoin:miter;stroke-opacity:1"
       d="m 82.736468,43.817023 c 0,0 -23.887189,-2.705357 -20.106809,5.599671 3.780377,8.305027 2.327349,6.255811 3.780377,8.455376 1.453031,2.199566 -5.900459,-0.93373 5.708841,3.093554 11.609302,4.027281 13.902507,-0.75972 11.442742,8.42061 -2.459768,9.180327 -1.752984,14.048169 -7.480427,14.376569 -5.727443,0.32839 -12.522338,-0.37627 -14.81941,-2.53907 -2.297073,-2.162806 2.983888,-7.591611 2.983888,-7.591611 0,0 8.133345,5.402141 9.642475,2.135767 1.509131,-3.266374 0.70666,-9.306568 0.70666,-9.306568 L 62.566667,64.972656 54.589704,49.440668 61.349936,36.952041 85.329147,39.746305 Z"
       id="path383-2" />
    <path
       style="fill:#ffffff;stroke:#000000;stroke-width:0.316884px;stroke-linecap:butt;stroke-linejoin:miter;stroke-opacity:1"
       d="m 126.76253,45.697605 -0.44784,-10.740882 c 0,0 -27.837934,-7.574717 -24.30027,3.198791 3.53767,10.773507 2.93113,34.650145 2.93113,34.650145 0,0 26.46194,1.400582 25.82859,-5.285825 -0.63336,-6.686415 -10.25268,-5.655575 -10.25268,-5.655575 l -8.42624,-1.52876 c 0,0 -6.54281,-15.075408 -1.94073,-17.362642 4.60208,-2.287235 16.60804,2.724748 16.60804,2.724748 z"
       id="path385" />
    <path
       style="fill:#ffffff;stroke:#000000;stroke-width:0.316884px;stroke-linecap:butt;stroke-linejoin:miter;stroke-opacity:1"
       d="m 127.01747,46.549841 -0.44785,-10.740882 c 0,0 -27.837924,-7.574717 -24.30026,3.198791 3.53766,10.773507 2.93113,34.650149 2.93113,34.650149 0,0 26.46193,1.400582 25.82858,-5.285829 -0.63335,-6.686415 -10.25267,-5.655575 -10.25267,-5.655575 l -8.42624,-1.52876 c 0,0 -6.54281,-15.075407 -1.94073,-17.362642 4.60208,-2.287235 16.60804,2.724748 16.60804,2.724748 z"
       id="path385-2" />
    <path
       style="fill:#ffffff;stroke:#000000;stroke-width:0.296434px;stroke-linecap:butt;stroke-linejoin:miter;stroke-opacity:1"
       d="m 146.25788,35.794335 c 9.11835,-7.93668 12.16515,-13.572607 17.10288,-6.140352 4.93773,7.432254 8.8672,8.660166 5.79155,17.52183 -3.07564,8.861661 2.32168,15.082232 -8.61539,15.656467 -10.93705,0.574236 -14.14979,9.491634 -17.65077,-6.137106 -3.50099,-15.628738 3.37173,-20.900839 3.37173,-20.900839 z"
       id="path387" />
    <path
       style="fill:#ffffff;stroke:#000000;stroke-width:0.296434px;stroke-linecap:butt;stroke-linejoin:miter;stroke-opacity:1"
       d="m 149.6256,36.244959 c 9.11835,-7.936681 12.16516,-13.572607 17.10289,-6.140352 4.93773,7.432253 8.86719,8.660165 5.79155,17.52183 -3.07564,8.861661 2.32168,15.082231 -8.61539,15.656467 -10.93706,0.574236 -14.14979,9.491639 -17.65077,-6.137106 -3.50099,-15.628738 3.37172,-20.900839 3.37172,-20.900839 z"
       id="path387-6" />
    <path
       style="fill:#ffffff;stroke:#000000;stroke-width:0.264583px;stroke-linecap:butt;stroke-linejoin:miter;stroke-opacity:1"
       d="m 191.03514,33.609275 -0.1379,-9.616699 37.02468,-0.566732 -0.4601,10.450377 -17.70749,-1.435875 -0.61443,36.238931 c 0,0 -6.97132,3.83278 -7.50919,-1.7923 -0.53786,-5.62509 0.32928,-32.576265 0.32928,-32.576265 z"
       id="path389" />
    <path
       style="fill:#ffffff;stroke:#000000;stroke-width:0.264583px;stroke-linecap:butt;stroke-linejoin:miter;stroke-opacity:1"
       d="m 193.1848,33.008005 -0.1379,-9.616699 37.02468,-0.566732 -0.4601,10.450377 -17.70749,-1.435875 -0.61443,36.238931 c 0,0 -6.97132,3.83278 -7.50919,-1.7923 -0.53786,-5.62509 0.32928,-32.576265 0.32928,-32.576265 z"
       id="path389-3" />
    <path
       style="fill:#ffffff;stroke:#000000;stroke-width:0.264583px;stroke-linecap:butt;stroke-linejoin:miter;stroke-opacity:1"
       d="m 216.53514,52.941858 -0.1379,-9.616699 37.02468,-0.566732 -0.4601,10.450377 -17.70749,-1.435875 -0.61443,36.238938 c 0,0 -6.97132,3.83278 -7.50919,-1.7923 -0.53786,-5.62509 0.32928,-32.576272 0.32928,-32.576272 z"
       id="path389-3-1" />
    <path
       style="fill:#ffffff;stroke:#000000;stroke-width:0.264583px;stroke-linecap:butt;stroke-linejoin:miter;stroke-opacity:1"
       d="m 219.32407,52.066578 -0.1379,-9.616699 37.02468,-0.566732 -0.4601,10.450377 -17.70749,-1.435875 -0.61443,36.238938 c 0,0 -6.97132,3.83278 -7.50919,-1.7923 -0.53786,-5.62509 0.32928,-32.576272 0.32928,-32.576272 z"
       id="path389-3-9" />
    <g
       id="g801"
       transform="matrix(1.7014843,0,0,1.7014843,149.7633,-235.87321)"
       inkscape:export-filename="Website/whole.svg"
       inkscape:export-xdpi="96"
       inkscape:export-ydpi="96">
      <g
         id="g2234"
         transform="translate(-0.60907218,0.11244363)">
        <path
           style="fill:#cccccc;stroke:#000000;stroke-width:0.264583px;stroke-linecap:butt;stroke-linejoin:round;stroke-opacity:1;paint-order:stroke fill markers"
           d="m 18.066055,146.10193 -1.875971,-0.68913 c 0,0 -1.165649,-0.94275 -1.424954,-1.40781 -0.259305,-0.46506 -0.270167,-0.46171 -0.400735,-0.98077 -0.130568,-0.51907 -0.346006,-1.05643 -0.439852,-1.28054 -0.09384,-0.22411 -0.331209,-0.60947 0.16651,-0.10869 0.497719,0.50077 0.70639,1.03954 0.952272,1.23407 0.245882,0.19453 -0.220436,0.0147 0.657412,0.55259 0.877848,0.53785 1.105682,0.75688 1.351067,0.90374 0.245385,0.14687 0.994349,0.53752 1.856659,0.8172 0.862311,0.27967 0.943718,0.45719 1.505792,0.51989 0.562074,0.0627 0.922234,0.15908 1.308132,0.15908 0.385897,0 0.389023,-0.0126 0.815399,-0.0752 0.426377,-0.0626 -3.250254,0.80787 -4.471731,0.35558 z"
           id="path6136" />
        <g
           id="g2225">
          <path
             style="display:inline;fill:none;stroke:#000000;stroke-width:0.265;stroke-linecap:butt;stroke-linejoin:round;stroke-dasharray:none;stroke-opacity:1;paint-order:stroke fill markers"
             d="m 27.490966,149.01686 0.447816,2.05332 0.118537,0.39336 0.0841,0.16393 0.167799,0.53321 0.07078,0.79579 -0.01683,1.37395 v 0.34636 0.5404 0.54075 0.34291 l -0.0544,0.35004 -0.0242,0.14951"
             id="path6128" />
          <path
             style="display:inline;fill:none;stroke:#000000;stroke-width:0.264583px;stroke-linecap:butt;stroke-linejoin:round;stroke-opacity:1;paint-order:stroke fill markers"
             d="m 28.303422,152.87069 1.10938,2.96026"
             id="path6130" />
          <path
             style="fill:none;stroke:#000000;stroke-width:0.264583px;stroke-linecap:butt;stroke-linejoin:round;stroke-opacity:1;paint-order:stroke fill markers"
             d="m 28.251817,152.79218 c 0,0 -0.29815,0.44799 -0.599728,1.14958 -0.301578,0.70159 -0.504486,1.11316 -0.574411,1.40565 -0.06992,0.2925 -0.365087,1.07017 -0.444966,1.17606"
             id="path6156"
             sodipodi:nodetypes="cssc" />
          <path
             style="display:inline;fill:#cccccc;stroke:#000000;stroke-width:0.264583px;stroke-linecap:butt;stroke-linejoin:round;stroke-opacity:1;paint-order:stroke fill markers"
             d="m 26.297864,142.07172 c 0,0 1.115069,-0.29939 2.152335,0.0935 0.319176,0.1209 0.501261,0.2709 0.645081,0.31975 0.323571,0.1099 0.354839,0.0205 0.617666,0.15591 0.379649,0.19558 0.855415,0.63218 1.151512,1.12664 0.296097,0.49446 0.283042,0.52028 0.305763,0.80718 0.02272,0.2869 0.165927,0.54947 0.07767,0.9151 -0.08826,0.36564 0.01921,0.66383 -0.379784,1.3103 -0.398991,0.64648 -0.990733,0.96366 -1.153394,1.32876 -0.16266,0.3651 -0.170241,0.54472 -0.864672,0.77971 -0.694432,0.235 -0.719695,0.51477 -1.725827,0.60018 -1.006133,0.0854 -1.564408,0.0975 -2.11031,0.1405 -0.545902,0.043 -1.608992,-0.29421 -1.806064,-0.29421 -0.197072,0 -0.58586,-0.20158 -1.018505,-0.18834 -0.432646,0.0132 -1.761314,-0.22072 -2.027163,-0.37807 -0.265851,-0.15734 -0.780802,-0.47253 -1.487064,-0.77298 -0.706263,-0.30044 -1.179093,-0.67926 -1.598903,-0.96584 -0.419811,-0.28657 -0.798576,-0.39169 -1.148911,-0.66102 -0.350335,-0.26933 -0.78904,-0.59717 -0.0027,-0.46406 0.786322,0.13312 1.375543,0.0999 1.375543,0.0999 0,0 1.163418,0.19726 2.074706,0.22097 0.911288,0.0237 -0.119933,0.19554 1.28567,-3.4e-4 1.405602,-0.19589 1.458715,0.14747 2.302402,-0.34449 0.843688,-0.49195 1.025963,-0.0904 1.481761,-0.8322 0.455797,-0.74183 0.577843,-0.523 0.836059,-1.3349 0.258216,-0.81191 0.634767,-1.50687 1.017148,-1.66191 z"
             id="path6134"
             sodipodi:nodetypes="csssssssssssssssssscccscscc" />
        </g>
        <path
           style="fill:#cccccc;stroke:#000000;stroke-width:0.264583px;stroke-linecap:butt;stroke-linejoin:round;stroke-opacity:1;paint-order:stroke fill markers"
           d="m 23.45269,147.28923 c 0,0 -1.271513,1.19184 -2.886695,0.99677 -1.615183,-0.19506 -2.410729,-0.66509 -3.098633,-0.97985 -0.687903,-0.31475 -0.726583,-0.27463 -1.195705,-0.58299 -0.469123,-0.30837 -0.235142,-0.33045 -0.827374,-0.64845 -0.592233,-0.318 -0.08894,-0.1888 0.904538,0.10244 0.993477,0.29123 1.343877,0.48784 1.867624,0.52136 0.523748,0.0335 2.61277,-0.01 2.772655,-0.0242 0.159884,-0.0144 0.670163,-0.20579 1.158934,-0.27392 0.488771,-0.0681 0.341447,-0.11268 0.66897,-0.16241"
           id="path6138"
           sodipodi:nodetypes="csssssscsc" />
      </g>
    </g>
    <g
       id="g3998"
       transform="matrix(0.65891071,0,0,0.65891071,-9.4917684,-69.755169)">
      <path
         style="fill:#ffffff;stroke:#000000;stroke-width:0.158017px;stroke-linecap:butt;stroke-linejoin:miter;stroke-opacity:1"
         d="m 113.3507,151.78972 5.1243,-12.66844 5.72071,1.0816 -1.44206,14.67321 -3.64474,-1.14166 1.53364,-6.8842 -2.98569,-0.21613 -2.48151,6.08345 z"
         id="path3986" />
      <path
         style="fill:#ffffff;stroke:#000000;stroke-width:0.158017px;stroke-linecap:butt;stroke-linejoin:miter;stroke-opacity:1"
         d="m 123.48236,146.20505 -0.47507,8.15348 6.22617,1.41981 0.23559,-3.7627 -3.68825,-1.41499 -0.16123,-4.1431 z"
         id="path3988" />
      <path
         style="fill:#ffffff;stroke:#000000;stroke-width:0.158017px;stroke-linecap:butt;stroke-linejoin:miter;stroke-opacity:1"
         d="m 127.48996,141.35843 -0.75286,8.49247 5.57252,1.26468 v -2.77641 l -3.98067,-1.23848 v -1.39865 l 4.45841,1.18351 0.011,-1.67817 -3.13147,-0.9859 0.22392,-0.88833 3.61068,0.9689 0.12088,-2.3886 z"
         id="path3990" />
      <path
         style="fill:#ffffff;stroke:#000000;stroke-width:0.158017px;stroke-linecap:butt;stroke-linejoin:miter;stroke-opacity:1"
         d="m 133.33493,145.48391 3.15572,4.65739 -4.0262,4.64761 3.01801,0.66283 3.3866,-3.37172 -0.0343,3.43422 2.6531,1.07458 -0.69174,-4.99679 3.31169,-3.11128 -4.00683,-2.09843 -1.30147,3.05452 -3.32246,-4.27692 z"
         id="path3992" />
      <ellipse
         style="fill:#ffffff;stroke:#323232;stroke-width:0;stroke-linecap:round;stroke-linejoin:round;stroke-dasharray:none;paint-order:stroke fill markers"
         id="path4042"
         cx="380.90079"
         cy="236.63821"
         rx="3.0139182"
         ry="3.7902324" />
      <path
         style="fill:#666666;stroke:#000000;stroke-width:0.213794px;stroke-linecap:butt;stroke-linejoin:miter;stroke-opacity:1"
         d="m 387.75794,239.02332 -1.92803,0.14366 0.12376,-7.56403 2.04072,0.20888 -0.11543,1.52335 c 0,0 2.10152,-2.81618 3.33108,-1.72017 1.22958,1.09599 0.53148,7.51846 0.53148,7.51846 l -1.56097,-0.0389 -0.12568,-5.18652 -1.85622,1.51186 z"
         id="path4107" />
      <path
         style="fill:#666666;stroke:#000000;stroke-width:0.213794px;stroke-linecap:butt;stroke-linejoin:miter;stroke-opacity:1"
         d="m 398.36652,235.67923 -0.17055,1.93034 4.27269,-0.16085 -0.37284,-2.39607 c 0,0 -1.60915,-2.40086 -2.54633,-2.40086 -0.93717,0 -2.11005,-1.08664 -2.8988,0.38705 -0.78874,1.4737 -1.06517,2.72658 -1.03505,3.74831 0.0301,1.02174 0.36969,3.75781 0.36969,3.75781 0,0 0.68178,1.30605 1.46878,1.55329 0.787,0.24726 -0.0984,-0.17342 1.32072,-0.23338 1.41914,-0.06 2.34802,-0.53511 2.34802,-0.53511 l 0.59745,-2.34783 -3.87109,0.08 -0.41103,-3.16384 z"
         id="path4109"
         inkscape:transform-center-x="1.0286108"
         inkscape:transform-center-y="0.34753665" />
      <path
         style="fill:#666666;stroke:#000000;stroke-width:0.213794px;stroke-linecap:butt;stroke-linejoin:miter;stroke-opacity:1"
         d="m 405.16517,241.25216 -0.27169,-5.80801 -1.90862,-0.22356 0.6131,-2.76619 4.98795,1.02651 -1.20881,2.51596 -1.32451,-0.266 z"
         id="path4111"
         inkscape:export-filename="Website/whole.svg"
         inkscape:export-xdpi="96"
         inkscape:export-ydpi="96" />
    </g>
  </g>
  <g
     inkscape:groupmode="layer"
     id="layer3"
     inkscape:label="Birdie"
     transform="translate(-54.440152,-4.660768)">
    <g
       id="g2538"
       transform="translate(-4.1299319,-3.5843315)">
      <path
         style="fill:none;stroke:#323232;stroke-width:0.264583;stroke-linecap:round;stroke-linejoin:round;stroke-dasharray:none;stroke-opacity:1;paint-order:normal"
         d="m 165.19156,48.527547 -0.0272,1.66604 -0.14492,0.4018 -0.0814,1.34582 0.0876,1.05892 0.12435,0.68403 0.55129,1.13758 0.41624,0.80454 -0.0112,0.0519"
         id="path1599" />
      <path
         style="fill:none;stroke:#323232;stroke-width:0.264583;stroke-linecap:round;stroke-linejoin:round;stroke-dasharray:none;stroke-opacity:1;paint-order:normal"
         d="m 170.87879,50.166557 -10.80407,7.9663 z"
         id="path1597" />
      <path
         style="fill:#ffffff;stroke:#323232;stroke-width:0.264583;stroke-linecap:round;stroke-linejoin:round;stroke-dasharray:none;stroke-opacity:1;paint-order:normal"
         d="m 158.75797,46.986737 -4.11482,0.1547 c 0,0 2.76859,-1.92237 2.82508,-1.8283 0.0565,0.0941 0.0381,-1.44498 0.0381,-1.44498 l 0.19899,-0.37582 0.34085,-0.33143 0.42059,-0.31225 0.43881,-0.1726 0.76306,-0.1723 0.76678,0.007 0.48593,0.0518 0.96152,0.14962 0.26008,0.13107 0.46837,0.23235 0.35273,0.12962 0.57709,0.13539 0.18633,0.15632 0.759,0.57761 0.47898,0.30615 0.8517,0.51444 0.80461,0.53564 0.56928,0.12691 1.80392,0.75962 2.57989,0.2741 0.96072,-0.0423 0.83151,-0.13168 0.2212,-0.0252 0.11775,0.29917 -0.39154,0.33466 -0.72357,-0.0382 -0.90875,0.13392 -0.41669,0.20444 -0.80488,0.36583 -1.01818,0.29319 -1.47648,0.31602 -0.64032,0.0794 -1.20339,0.18101 -1.37113,-0.14619 -0.99449,0.18936 -1.0322,0.273 -0.61517,0.29522 -0.22341,0.23174 -0.38259,0.27192 -0.44384,0.1782 -0.65601,0.0105 -0.65062,-0.1416 -0.5728,-0.39109 -0.45639,-0.55917 -0.0657,-0.2356 -0.0616,-0.58005 0.0969,-0.43574 0.16543,-0.4779 z"
         id="path1529"
         sodipodi:nodetypes="ccscccccccccccccccccccccccccccccccccccccccccccccccccc" />
      <path
         style="fill:#323232;fill-opacity:1;stroke:#323232;stroke-width:0.264583;stroke-linecap:round;stroke-linejoin:round;stroke-dasharray:none;stroke-opacity:1;paint-order:normal"
         d="m 159.07479,44.038987 c 0.0853,-0.0117 0.16931,-0.0208 0.25517,-0.0291 0.0283,-0.003 0.0581,0 0.0866,0 0.0206,0 0.0547,-0.005 0.0734,0 0.008,0.002 0.0151,0.009 0.0234,0.0117 0.004,0.001 0.008,0 0.0117,0 0.0117,0.004 0.024,0.006 0.0351,0.0117 0.0555,0.0277 -0.072,-0.007 0.0468,0.0234 0.009,0.002 0.014,-0.002 0.0229,0 0.012,0.003 0.0232,0.008 0.0351,0.0117 0.0157,0.005 0.0324,0.006 0.0477,0.012 0.005,0.002 0.007,0.009 0.0112,0.0112 0.001,7.9e-4 0.0155,-5.3e-4 0.0177,0 0.0121,0.003 0.0431,0.0133 0.0548,0.0221 0.0132,0.01 0.0259,0.0213 0.0351,0.0351 0.005,0.007 0.006,0.0166 0.0117,0.0234 0.0244,0.0306 0.0572,0.0572 0.0851,0.0851 0.007,0.007 0.0186,0.0155 0.024,0.024 0.005,0.007 0.007,0.0159 0.0115,0.023 0.003,0.005 0.01,0.007 0.0117,0.0117 0.0166,0.0388 0.0223,0.0819 0.0411,0.11961 0.001,0.002 0.0214,0.0205 0.0227,0.0227 10e-4,0.002 -0.002,0.006 0,0.007 0.007,0.005 0.0166,0.005 0.0225,0.0112 0.006,0.006 0.007,0.0157 0.0114,0.0228 0.006,0.01 0.0216,0.016 0.0263,0.0264 0.006,0.0131 0.007,0.0282 0.0137,0.0412 0,0 0.0226,0.0226 0.0237,0.0237 0.0207,0.0207 0.0615,0.0545 0.0762,0.0762 10e-4,0.002 -7.8e-4,0.0224 0.0106,0.0399 0.003,0.005 0.009,0.007 0.0117,0.0117 0.01,0.0148 0.0182,0.0308 0.0238,0.0476 8e-5,2.2e-4 -6e-5,0.0217 0,0.022 0.0236,0.10404 -0.004,-0.006 0.0222,0.046 0.0325,0.01 0.006,0.0318 0.0118,0.0466 0.001,0.003 0.007,0.004 0.008,0.008 0.002,0.0152 -0.002,0.0308 0,0.046 0.006,0.0425 0.0121,0.0246 0.0234,0.0585 0.004,0.0129 0,0.0375 0,0.051 0,0.0371 0,0.0742 0,0.11133 0,0.0156 -0.003,0.0315 0,0.0469 0.002,0.0124 0.009,0.0236 0.0121,0.0358 0.004,0.0138 -0.004,0.0304 0,0.0441 0.003,0.0114 0.008,0.022 0.0111,0.0334 0.004,0.0157 0,0.0367 0,0.0527 0,0.0385 0,0.077 0,0.11543 0,0.0691 0,0.13817 0,0.20725 0,0.0137 0.004,0.0836 0,0.0908 -0.006,0.009 -0.0172,0.0141 -0.0232,0.0232 -0.005,0.007 -0.007,0.0165 -0.012,0.024 -0.0104,0.0157 -0.0174,0.0116 -0.0339,0.0227 -0.005,0.003 -0.007,0.009 -0.0117,0.0117 -0.007,0.005 -0.0151,0.006 -0.0219,0.0111 -0.0137,0.009 -0.0214,0.0257 -0.0351,0.0351 -0.006,0.004 -0.0215,-0.004 -0.0282,0 -0.004,0.002 -0.0171,0.0189 -0.0217,0.0217 -0.005,0.003 -0.0469,0 -0.0558,0 -0.0387,0 -0.0775,0 -0.11624,0 -0.0727,0 -0.14541,0 -0.21812,0 -0.005,0 -0.0993,0.005 -0.10885,0 -0.005,-0.002 -0.006,-0.008 -0.0107,-0.0107 -0.009,-0.005 -0.0203,-0.006 -0.0299,-0.01 -0.008,-0.004 -0.0345,-0.0327 -0.0398,-0.0398 -0.008,-0.0115 -0.0136,-0.0256 -0.0237,-0.0357 -0.006,-0.006 -0.0158,-0.008 -0.0237,-0.0119 -0.0161,-0.008 -0.0326,-0.0152 -0.0481,-0.0241 -0.0123,-0.007 -0.024,-0.0152 -0.0354,-0.0237 -0.004,-0.003 -0.007,-0.009 -0.0117,-0.0117 -0.003,-0.002 -0.007,0.002 -0.01,0 -0.0174,-0.009 -0.0287,-0.0328 -0.0445,-0.0445 -0.12232,-0.0908 0.0261,0.0211 -0.0593,-0.0354 -0.0209,-0.0138 -0.0314,-0.0392 -0.047,-0.0588 -0.0127,-0.0159 -0.0299,-0.0355 -0.0468,-0.0468 -0.007,-0.005 -0.0164,-0.006 -0.0234,-0.0117 -0.009,-0.007 -0.014,-0.0177 -0.0234,-0.0234 -0.0102,-0.006 -0.0238,-0.005 -0.034,-0.0114 -0.0105,-0.006 -0.0557,-0.0522 -0.0659,-0.066 -0.005,-0.007 -0.0211,-0.0369 -0.0341,-0.0456 -0.007,-0.005 -0.0155,-0.007 -0.0225,-0.0117 -0.005,-0.003 -0.007,-0.009 -0.0117,-0.0117 -0.007,-0.005 -0.0156,-0.007 -0.0229,-0.0115 -0.012,-0.007 -0.023,-0.0162 -0.0351,-0.0234 -0.0149,-0.009 -0.0323,-0.0137 -0.0468,-0.0234 -0.005,-0.003 -0.008,-0.008 -0.0117,-0.0117 -0.008,-0.004 -0.0161,-0.007 -0.0234,-0.0117 -0.005,-0.003 -0.007,-0.01 -0.0117,-0.0117 -0.007,-0.002 -0.016,0.002 -0.0234,0 -0.005,-0.002 -0.007,-0.009 -0.0117,-0.0117 -0.003,-0.002 -0.007,0 -0.0111,0 -0.007,-0.004 -0.0154,-0.006 -0.0223,-0.0111 -0.0148,-0.01 -0.01,-0.0127 -0.0192,-0.0271 -0.0104,-0.0155 -0.0292,-0.0292 -0.0424,-0.0424 -0.0165,-0.0165 -0.0817,-0.0748 -0.0888,-0.0888 -0.0298,-0.0587 0.0521,0.0249 -0.0117,-0.0574 -0.006,-0.007 -0.0197,-0.005 -0.0254,-0.0127 -0.008,-0.0105 -0.008,-0.025 -0.0125,-0.0375 -0.008,-0.0121 -0.0158,-0.0247 -0.0247,-0.0363 -0.004,-0.005 -0.01,-0.007 -0.0125,-0.0125 -0.005,-0.0102 0.004,-0.0235 0,-0.0344 -0.002,-0.005 -0.009,-0.006 -0.0106,-0.0106 -0.007,-0.0222 0.005,-0.0581 0,-0.0818 -0.002,-0.0122 -0.009,-0.0234 -0.0119,-0.0355 -0.005,-0.0196 0,-0.0602 0,-0.0814 0,-0.0985 0,-0.19707 0,-0.29561 0,-0.009 -0.003,-0.0701 0,-0.0747 0.006,-0.01 0.0754,-0.0783 0.0826,-0.0826 0.005,-0.003 0.012,0.003 0.017,0 0.0131,-0.007 0.0345,-0.0345 0.0458,-0.0458 0.0231,-0.0231 0.0462,-0.0462 0.0693,-0.0693 0.009,-0.009 0.0227,-0.0189 0.0294,-0.0294 0.0106,-0.0168 0.0267,-0.0474 0.0461,-0.0571 0.004,-0.002 0.008,0.002 0.0116,0 0.0146,-0.01 0.0359,-0.0445 0.052,-0.052 0.01,-0.005 0.0257,0.004 0.036,0 0.008,-0.003 0.0147,-0.009 0.0229,-0.0115 0.0424,-0.0109 0.0851,0.021 0.12664,0.0348 z"
         id="path1595" />
      <path
         style="fill:none;stroke:#323232;stroke-width:0.264583;stroke-linecap:round;stroke-linejoin:round;stroke-dasharray:none;stroke-opacity:1;paint-order:normal"
         d="m 165.15696,49.219917 2.52881,3.28573"
         id="path1603"
         sodipodi:nodetypes="cc" />
    </g>
  </g>
</svg>
