<?xml version="1.0" encoding="UTF-8" standalone="no"?>
<!-- Created with Inkscape (http://www.inkscape.org/) -->

<svg
   width="100"
   height="100"
   viewBox="0 0 100 100"
   version="1.1"
   id="SVGRoot"
   sodipodi:docname="foot-in-a-shoe.svg"
   inkscape:version="1.2.2 (b0a8486541, 2022-12-01)"
   xmlns:inkscape="http://www.inkscape.org/namespaces/inkscape"
   xmlns:sodipodi="http://sodipodi.sourceforge.net/DTD/sodipodi-0.dtd"
   xmlns="http://www.w3.org/2000/svg"
   xmlns:svg="http://www.w3.org/2000/svg">
  <sodipodi:namedview
     id="namedview1498"
     pagecolor="#ffffff"
     bordercolor="#000000"
     borderopacity="0.25"
     inkscape:showpageshadow="2"
     inkscape:pageopacity="0.0"
     inkscape:pagecheckerboard="0"
     inkscape:deskcolor="#d1d1d1"
     inkscape:document-units="px"
     showgrid="false"
     inkscape:zoom="1.2938725"
     inkscape:cx="1084.3418"
     inkscape:cy="702.54219"
     inkscape:window-width="3770"
     inkscape:window-height="2091"
     inkscape:window-x="0"
     inkscape:window-y="0"
     inkscape:window-maximized="1"
     inkscape:current-layer="layer1" />
  <defs
     id="defs1493" />
  <g
     inkscape:label="Layer 1"
     inkscape:groupmode="layer"
     id="layer1">
    <path
       style="fill:#a05a2c;fill-opacity:1;stroke:#000000;stroke-width:0.634406;stroke-dasharray:none"
       d="m 32.70713,22.937816 c 8.1622,5.68234 16.3349,11.35435 24.5215,16.99856 2.0628,1.89547 3.9933,3.94503 6.1323,5.74508 2.4571,1.54762 1.9979,7.17974 -1.5313,4.96497 -2.4284,-1.4069 -4.4262,-3.42907 -6.3466,-5.44871 3.5572,2.75866 7.0301,5.64149 10.6405,8.32184 2.6557,1.19791 1.9426,6.12626 -1.4895,4.99623 -2.2949,-0.29245 -3.7167,-2.5064 -5.588,-3.70323 -2.3932,-1.92202 -4.7856,-3.84495 -7.1777,-5.76823 4.4978,3.82524 9.0017,7.64612 13.4956,11.47394 0.8241,1.38749 0.2604,3.53013 -1.1461,4.40257 -0.5645,0.79902 -1.3758,0.86361 -2.2707,0.67938 -1.1341,0.21536 -1.6158,-0.94356 -2.346,-1.57907 -3.6037,-3.81955 -7.2074,-7.6391 -10.8111,-11.45865 l 11.9081,13.43077 c 0.5118,0.18351 2.3813,0.96336 2.4523,2.91784 1.0357,3.37368 -4.5595,2.20162 -6.0356,0.5367 -3.4742,-3.103 0.2758,-0.66576 -1.5562,-0.9703 -2.7358,-3.91558 -7.4475,-8.73552 -10.1832,-12.6511 1.4683,3.17957 6.7798,6.89466 8.1208,10.12706 1.0853,2.55313 4.2645,3.73047 0.3219,6.24884 0,0 -3.0895,0.83353 -5.619,-1.70626 -3.7127,-4.61198 -8.5833,-8.46305 -10.3231,-12.64567 l -16.6291,-27.56809 c 4.5964,-0.67536 7.0307,-4.68673 11.4602,-7.34447 z"
       id="path2046"
       sodipodi:nodetypes="ccccccccccccccccccccccccc"
       inkscape:export-filename="foot-in-shoe.png"
       inkscape:export-xdpi="96"
       inkscape:export-ydpi="96" />
  </g>
  <g
     inkscape:groupmode="layer"
     id="layer2"
     inkscape:label="char"
     style="display:inline">
    <text
       xml:space="preserve"
       style="font-size:88.084px;fill:#181818;fill-opacity:1;stroke:#000000;stroke-width:0.634406;stroke-dasharray:none"
       x="28.841335"
       y="81.315605"
       id="text1510"><tspan
         sodipodi:role="line"
         id="tspan1508"
         x="28.841335"
         y="81.315605"
         style="fill:#181818;fill-opacity:1;stroke-width:0.634406;stroke-dasharray:none">ʊ</tspan></text>
  </g>
</svg>
